<svg preserveAspectRatio="xMidYMid meet" overflow="visible" style="display: block;" width="40" height="40" viewBox="0 0 40 40" fill="none" xmlns="http://www.w3.org/2000/svg">
<g id="Twitter">
<path id="Combined-Shape" d="M20 0C31.0457 2.57703e-07 40 8.95431 40 20C40 31.0457 31.0457 40 20 40C8.95431 40 2.5772e-07 31.0457 0 20C0 8.95431 8.95431 0 20 0ZM24.5771 12.1318C23.8637 11.9342 22.7724 11.9625 22.1289 12.1885C20.3804 12.824 19.2757 14.4624 19.4014 16.2559L19.4434 16.9482L18.7432 16.8633C16.1972 16.5384 13.9725 15.437 12.084 13.5869L11.1611 12.6689L10.9229 13.3467C10.4192 14.8579 10.7418 16.454 11.791 17.5273C12.3505 18.1204 12.224 18.2056 11.2588 17.8525C10.9231 17.7396 10.6295 17.6549 10.6016 17.6973C10.5042 17.7975 10.8398 19.0817 11.1055 19.5898C11.4693 20.2958 12.2103 20.988 13.0215 21.3975L13.707 21.7217L12.8955 21.7363C12.1125 21.7363 12.0841 21.7505 12.168 22.0469C12.4477 22.9648 13.5532 23.9395 14.7842 24.3633L15.6514 24.6602L14.8965 25.1113C13.7774 25.761 12.4624 26.1289 11.1475 26.1572C10.5193 26.1713 10.0022 26.2272 10 26.2695C10 26.4108 11.7069 27.202 12.7002 27.5127C15.6798 28.4306 19.219 28.0353 21.877 26.4678C23.7655 25.352 25.6548 23.1341 26.5361 20.9873C27.0117 19.8433 27.4872 17.7537 27.4873 16.751C27.4873 16.1013 27.5291 16.016 28.3125 15.2393C28.7739 14.7875 29.2079 14.2937 29.292 14.1523C29.4319 13.884 29.4176 13.8839 28.7041 14.124C27.5151 14.5477 27.3471 14.4909 27.9346 13.8555C28.3682 13.4035 28.8857 12.5838 28.8857 12.3438C28.8844 12.3023 28.6755 12.3733 28.4385 12.5C28.1866 12.6412 27.6267 12.8524 27.207 12.9795L26.4521 13.2197L25.7666 12.7539C25.3889 12.4997 24.8569 12.2166 24.5771 12.1318Z" fill="#6C6762"/>
</g>
</svg>
