<svg preserveAspectRatio="xMidYMid meet" overflow="visible" style="display: block;" width="28" height="24" viewBox="0 0 28 24" fill="none" xmlns="http://www.w3.org/2000/svg">
<g id="3">
<path id="Vector" d="M18.2495 0L18.7361 0.19264C19.2269 0.866893 18.7765 2.42622 18.2685 3.11562C17.0162 4.81609 13.6377 3.38338 12.6089 4.74158C12.14 6.17308 13.9076 6.35301 14.3997 7.93899C14.961 7.94686 17.5836 8.00623 17.8908 7.87234C21.1328 6.46023 23.2175 6.34694 25.1895 9.85027C26.2771 11.7822 26.7606 14.1563 27.4639 16.3414C28.5815 19.6897 28.2883 25.0261 23.2885 23.6631C21.9285 23.2923 18.7642 18.4623 19.1847 17.5681C20.6909 17.8529 21.934 23.0203 24.3087 23.0585C26.1296 23.087 27.3023 21.7754 27.1334 19.9223C26.8328 16.6316 25.4563 11.2775 23.2823 8.70653C21.7375 6.87944 19.7006 8.21765 18.0732 8.73621C17.6595 8.8495 15.3221 8.798 14.7492 8.79134C13.2472 8.78407 11.4435 8.89796 9.9746 8.73621C8.58036 8.58295 7.79143 7.4507 6.1034 7.8681C5.18717 8.09467 4.26971 8.88039 3.8321 9.74426C2.34788 12.6715 0.505012 17.9795 1.043 21.1999C1.16358 21.9214 1.93965 22.6665 2.50579 22.9264C5.80289 24.4397 6.83174 18.223 8.73521 17.6087L8.86985 17.7214C8.86679 17.7959 8.87965 17.9395 8.85762 18.0007C7.65739 21.3604 3.80639 26.9823 0.429729 22.0711C-0.464472 20.7692 0.241215 17.135 0.709432 15.6502C1.99595 11.5708 3.22433 4.87303 9.23953 7.58156C9.87606 7.8681 12.8622 8.16797 13.4712 7.8572C13.2105 7.02302 10.6289 6.02709 11.9748 4.21394C13.1475 2.63462 14.9181 3.44941 16.5609 3.15681C18.55 2.80241 17.6546 0.904457 18.2495 0Z" fill="#6C6762"/>
<path id="Vector_2" d="M10.3876 15.0126C12.0863 14.8952 12.3079 15.5991 12.9212 17.062C13.4656 17.2493 14.4724 17.2364 15.0464 17.1543C15.3234 16.3967 15.7189 15.1592 16.5358 15.054C18.7905 14.7635 19.6421 16.6187 18.4838 18.4698C17.2431 19.279 16.5944 19.152 15.5102 18.1569L12.5154 18.1542C11.9517 18.7325 11.3983 19.1059 10.5712 18.9531C10.0816 18.8608 9.64805 18.5655 9.36782 18.1331C8.52135 16.842 9.25122 15.6819 10.3876 15.0126ZM17.3939 18.0347C17.7675 17.9268 18.0516 17.6071 18.1289 17.2066C18.2062 16.8067 18.0632 16.3947 17.7591 16.1422C17.455 15.889 17.0415 15.8381 16.6904 16.0098C16.2066 16.2467 15.9753 16.8345 16.1589 17.3627C16.3419 17.8908 16.8791 18.1827 17.3939 18.0347ZM11.2115 18.0171C11.5768 17.8989 11.848 17.5765 11.9163 17.1807C11.9839 16.785 11.837 16.3825 11.5349 16.1367C11.2321 15.8917 10.825 15.8442 10.4797 16.0145C9.99334 16.2535 9.76593 16.8481 9.95919 17.3756C10.1518 17.903 10.6987 18.1834 11.2115 18.0171Z" fill="#6C6762"/>
<path id="Vector_3" d="M6.30678 10.0323C6.91136 10.0089 7.45875 9.90095 7.90834 10.2768C8.01413 10.8594 8.09715 11.1351 8.28167 11.6982C8.66053 12.0057 8.90162 11.8061 9.58677 12.0005C10.0868 12.5292 10.1255 13.3199 9.74361 13.9434C9.30078 14.2861 8.84812 14.067 8.508 14.1385C7.91326 14.2627 8.46556 15.0495 7.85052 15.9572C7.31544 15.991 6.95012 16.0521 6.42549 15.9123C6.05647 15.5027 6.07553 14.9883 5.95437 14.3407C5.7022 14.0585 5.25261 14.2776 4.60621 14.0175C2.91424 11.9635 5.22924 12.0747 5.91562 11.6501C5.89717 11.6611 5.96913 10.531 6.30678 10.0323ZM6.70348 13.4213C6.7004 13.9668 6.59278 14.7614 6.87877 15.2029C7.12048 15.2556 7.1949 15.2757 7.44092 15.2978L7.4569 13.4115C8.01781 13.4246 8.54921 13.5156 9.01479 13.2379L9.1378 12.9986C8.70235 12.4362 8.10822 12.5669 7.45075 12.5545C7.45629 12.035 7.54916 11.2931 7.32221 10.8828C7.03683 10.7521 7.03683 10.7645 6.72316 10.7326C6.73547 11.2723 6.80497 11.864 6.61062 12.3465C6.28034 12.5363 5.64808 12.4524 5.05334 12.7171C4.96047 13.1358 4.93033 12.9434 5.05088 13.3134C5.59211 13.485 6.13088 13.4291 6.70348 13.4213Z" fill="#6C6762"/>
<path id="Vector_4" d="M21.9873 14.8413C22.0612 15.301 21.8078 15.751 21.376 15.9262C20.9447 16.1019 20.4491 15.9557 20.1812 15.5742C19.9139 15.1928 19.945 14.6774 20.2568 14.3307C20.5686 13.9847 21.0781 13.8995 21.4853 14.1261C21.7537 14.2745 21.9385 14.5381 21.9873 14.8413Z" fill="#6C6762"/>
<path id="Vector_5" d="M20.8835 10.0069C21.4084 9.94547 21.8903 10.3025 21.984 10.8227C22.0777 11.3424 21.7509 11.8453 21.2378 11.9713C20.8765 12.0596 20.4958 11.9406 20.2498 11.6611C20.0037 11.3822 19.9332 10.9896 20.0662 10.6423C20.1992 10.295 20.5141 10.0499 20.8835 10.0069Z" fill="#6C6762"/>
<path id="Vector_6" d="M18.5935 12.0863C18.9224 11.9401 19.3047 11.9817 19.5942 12.1957C19.8837 12.4098 20.0363 12.7629 19.9926 13.1204C19.9495 13.4779 19.7171 13.7841 19.385 13.9227C18.8798 14.1335 18.2986 13.8984 18.0819 13.3959C17.8652 12.8929 18.0932 12.3089 18.5935 12.0863Z" fill="#6C6762"/>
<path id="Vector_7" d="M22.1295 13.4925C21.8801 13.0511 22.0002 12.4928 22.4092 12.1931C22.8181 11.8939 23.3867 11.9475 23.7318 12.3186C24.0774 12.6897 24.0904 13.2604 23.7626 13.6472C23.4342 14.0335 22.869 14.1135 22.4471 13.8328C22.3156 13.7462 22.2074 13.6294 22.1295 13.4925Z" fill="#6C6762"/>
<path id="Vector_8" d="M15.0389 12.038C15.3346 12.0147 15.6526 11.9231 15.9066 12.1498C16.0392 12.5578 16.0032 12.4006 15.964 12.9572C15.6719 12.9874 15.3223 13.0844 15.0876 12.8239C14.9627 12.3643 14.9955 12.6125 15.0389 12.038Z" fill="#6C6762"/>
<path id="Vector_9" d="M12.015 12.0732C12.6084 12.0266 13.2083 11.9163 13.7407 12.1125C14.085 12.4931 13.9806 12.3546 13.9977 12.9368C13.3936 12.9767 12.7639 13.0888 12.2464 12.8627C11.9063 12.4306 12.0185 12.6739 12.015 12.0732Z" fill="#6C6762"/>
<path id="Vector_10" d="M22.5529 13C22.6626 13.2666 22.8149 13.4942 23 13.6628C22.8203 14.2677 22.7814 14.334 22.7136 15C22.6443 14.4036 22.3816 13.8851 22 13.5932L22.5529 13Z" fill="#6C6762" fill-opacity="0.0117647"/>
</g>
</svg>
